<svg width="158" height="117" viewBox="0 0 158 117" fill="none" xmlns="http://www.w3.org/2000/svg">
<rect width="158" height="115" rx="20" fill="#034078"/>
<path d="M39.0426 85.2159V82.375L61.9119 70.7273V75.2727L44.3693 83.7244L44.5114 83.4403V84.1506L44.3693 83.8665L61.9119 92.3182V96.8636L39.0426 85.2159ZM112.693 85.2159L89.8239 96.8636V92.3182L107.366 83.8665L107.224 84.1506V83.4403L107.366 83.7244L89.8239 75.2727V70.7273L112.693 82.375V85.2159Z" fill="#FFFDFD"/>
<path d="M83.6493 59.9318L71.9306 103.469H68.0953L79.8141 59.9318H83.6493Z" fill="white"/>
<g filter="url(#filter0_i_2_40)">
<path d="M39.825 17.13C44.8117 17.13 48.7533 17.8267 51.65 19.22C54.5833 20.5767 56.8017 22.0983 58.305 23.785C59.515 25.1783 60.505 26.7917 61.275 28.625C62.045 30.4217 62.43 32.585 62.43 35.115C62.43 36.985 62.0083 38.9467 61.165 41C60.3217 43.0167 59.2217 44.6483 57.865 45.895C56.435 47.2517 55.0783 48.3517 53.795 49.195C52.5483 50.0383 50.8433 50.735 48.68 51.285C46.5533 51.7983 43.84 52.055 40.54 52.055C38.0467 52.055 35.7917 51.78 33.775 51.23C31.7583 50.6433 30.75 49.6717 30.75 48.315C30.75 47.765 30.9883 47.3433 31.465 47.05C31.9783 46.72 32.5283 46.555 33.115 46.555C33.445 46.555 33.665 46.5733 33.775 46.61C34.0317 44.19 34.16 41.6233 34.16 38.91C34.16 35.8667 34.0867 33.355 33.94 31.375C33.7933 29.3583 33.5917 27.36 33.335 25.38C33.2983 25.1233 33.2067 24.4083 33.06 23.235C32.95 22.0617 32.895 20.87 32.895 19.66C32.895 18.89 33.28 18.2483 34.05 17.735C34.82 17.185 35.6083 16.91 36.415 16.91C36.8917 16.91 37.5333 16.9467 38.34 17.02C39 17.0933 39.495 17.13 39.825 17.13ZM39.11 46.885C39.99 47.0317 41.145 47.105 42.575 47.105C44.995 47.105 47.2867 46.61 49.45 45.62C51.6133 44.5933 53.355 43.1817 54.675 41.385C55.995 39.5517 56.655 37.4433 56.655 35.06C56.655 32.5667 56.215 30.44 55.335 28.68C54.455 26.92 53.0983 25.4717 51.265 24.335C49.9083 23.4917 48.24 22.8867 46.26 22.52C44.28 22.1167 41.8967 21.915 39.11 21.915C39.11 22.795 39.165 23.895 39.275 25.215C39.275 25.655 39.3117 26.425 39.385 27.525C39.605 31.7783 39.715 35.2067 39.715 37.81C39.715 41.5867 39.5133 44.6117 39.11 46.885ZM90.926 44.52C91.6227 44.52 92.136 44.795 92.466 45.345C92.8327 45.8583 93.016 46.4267 93.016 47.05C93.016 47.82 92.8877 48.37 92.631 48.7C92.411 48.9933 91.971 49.305 91.311 49.635C89.771 50.3683 87.8644 50.955 85.591 51.395C83.3177 51.835 80.8793 52.055 78.276 52.055C75.0127 52.055 72.611 51.505 71.071 50.405C69.5677 49.305 68.6327 47.985 68.266 46.445C67.936 44.8683 67.771 42.815 67.771 40.285C67.771 37.5717 67.881 34.9133 68.101 32.31C68.321 29.67 68.706 26.315 69.256 22.245C69.5127 20.485 70.2093 19.22 71.346 18.45C72.4827 17.6433 73.7293 17.24 75.086 17.24C76.2227 17.24 78.0743 17.2033 80.641 17.13L85.426 17.075C87.406 17.075 88.836 17.13 89.716 17.24C90.816 17.46 91.6227 17.7167 92.136 18.01C92.686 18.2667 92.961 18.725 92.961 19.385C92.961 20.1183 92.7044 20.8333 92.191 21.53C91.7143 22.2267 90.981 22.575 89.991 22.575C88.8544 22.575 87.2227 22.5017 85.096 22.355C82.9693 22.2083 81.3743 22.135 80.311 22.135C79.3943 22.135 78.496 22.19 77.616 22.3C76.5893 22.3733 75.856 22.5017 75.416 22.685C74.976 22.8683 74.7193 23.18 74.646 23.62C74.1327 27.3967 73.876 30.1833 73.876 31.98C74.7193 32.09 75.5443 32.145 76.351 32.145C77.3777 32.145 78.4777 32.09 79.651 31.98C80.8243 31.87 81.576 31.7967 81.906 31.76C83.8494 31.5767 85.5177 31.485 86.911 31.485C87.7177 31.485 88.3227 31.6317 88.726 31.925C89.166 32.2183 89.386 32.6217 89.386 33.135C89.386 33.9417 89.166 34.565 88.726 35.005C88.3227 35.445 87.5894 35.775 86.526 35.995C85.2427 36.2517 83.6477 36.4533 81.741 36.6C79.871 36.7467 78.0377 36.82 76.241 36.82C75.6177 36.82 74.756 36.7833 73.656 36.71C73.546 38.9467 73.491 41.0183 73.491 42.925C73.491 45.5283 75.2143 46.83 78.661 46.83C80.4943 46.83 82.016 46.7017 83.226 46.445C84.436 46.1883 85.8294 45.8217 87.406 45.345C88.8727 44.795 90.046 44.52 90.926 44.52ZM101.803 18.725C103.159 22.7583 104.699 27.195 106.423 32.035C108.146 36.8383 109.723 41 111.153 44.52C112.216 41.11 113.683 37.0217 115.553 32.255C117.423 27.4517 119.164 23.125 120.778 19.275C121.254 18.1383 122.061 17.57 123.198 17.57C124.261 17.57 125.068 17.79 125.618 18.23C126.168 18.6333 126.443 19.3483 126.443 20.375C126.443 20.7783 126.388 21.1267 126.278 21.42C126.168 21.7133 126.003 22.0983 125.783 22.575C124.646 24.8117 123.509 27.3967 122.373 30.33C121.236 33.2267 119.843 36.9117 118.193 41.385C118.266 41.2017 117.753 42.5767 116.653 45.51L114.838 50.24C114.618 50.8267 114.251 51.285 113.738 51.615C113.261 51.9083 112.711 52.055 112.088 52.055C111.464 52.055 110.768 51.9083 109.998 51.615C109.264 51.285 108.733 50.955 108.403 50.625C107.156 48.2417 105.561 44.795 103.618 40.285C101.711 35.775 100.061 31.6133 98.6677 27.8L97.8427 25.545C97.2927 24.005 96.8894 22.8317 96.6327 22.025C96.376 21.1817 96.2477 20.5033 96.2477 19.99C96.2477 19.2567 96.651 18.67 97.4577 18.23C98.301 17.79 99.1077 17.57 99.8777 17.57C100.281 17.57 100.666 17.6617 101.033 17.845C101.399 18.0283 101.656 18.3217 101.803 18.725Z" fill="white"/>
</g>
<path d="M51.65 19.22L51.2165 20.1212L51.2234 20.1244L51.2302 20.1276L51.65 19.22ZM58.305 23.785L59.0601 23.1293L59.0515 23.1196L58.305 23.785ZM61.275 28.625L60.353 29.0122L60.3559 29.0189L61.275 28.625ZM61.165 41L62.0876 41.3858L62.09 41.3799L61.165 41ZM57.865 45.895L57.1884 45.1587L57.1825 45.1641L57.1767 45.1695L57.865 45.895ZM53.795 49.195L53.2458 48.3592L53.2347 48.3667L53.795 49.195ZM48.68 51.285L48.9147 52.2572L48.9264 52.2542L48.68 51.285ZM33.775 51.23L33.4957 52.1902L33.5038 52.1925L33.5119 52.1948L33.775 51.23ZM31.465 47.05L31.9891 47.9017L31.9975 47.8965L32.0058 47.8912L31.465 47.05ZM33.775 46.61L33.4588 47.5587L34.6383 47.9519L34.7694 46.7155L33.775 46.61ZM33.94 31.375L32.9426 31.4475L32.9427 31.4489L33.94 31.375ZM33.335 25.38L34.3268 25.2514L34.3249 25.2386L33.335 25.38ZM33.06 23.235L32.0644 23.3283L32.0658 23.3437L32.0677 23.359L33.06 23.235ZM34.05 17.735L34.6047 18.567L34.6181 18.5581L34.6312 18.5487L34.05 17.735ZM38.34 17.02L38.4504 16.0261L38.4405 16.025L38.4305 16.0241L38.34 17.02ZM39.11 46.885L38.1254 46.7103L37.9489 47.7053L38.9456 47.8714L39.11 46.885ZM49.45 45.62L49.8662 46.5294L49.8787 46.5234L49.45 45.62ZM54.675 41.385L55.4809 41.9771L55.4865 41.9693L54.675 41.385ZM55.335 28.68L54.4406 29.1272L55.335 28.68ZM51.265 24.335L50.7371 25.1843L50.7381 25.1849L51.265 24.335ZM46.26 22.52L46.0604 23.4999L46.0691 23.5017L46.0779 23.5033L46.26 22.52ZM39.11 21.915V20.915H38.11V21.915H39.11ZM39.275 25.215H40.275V25.1734L40.2715 25.132L39.275 25.215ZM39.385 27.525L40.3837 27.4733L40.3833 27.4659L40.3828 27.4585L39.385 27.525ZM39.825 18.13C44.7362 18.13 48.5092 18.8189 51.2165 20.1212L52.0835 18.3188C48.9975 16.8344 44.8872 16.13 39.825 16.13V18.13ZM51.2302 20.1276C54.0887 21.4497 56.1767 22.9 57.5585 24.4504L59.0515 23.1196C57.4267 21.2966 55.078 19.7037 52.0698 18.3124L51.2302 20.1276ZM57.55 24.4407C58.6852 25.748 59.6209 27.2691 60.353 29.0122L62.197 28.2378C61.3891 26.3142 60.3448 24.6087 59.06 23.1293L57.55 24.4407ZM60.3559 29.0189C61.0593 30.6603 61.43 32.6823 61.43 35.115H63.43C63.43 32.4877 63.0307 30.183 62.1941 28.2311L60.3559 29.0189ZM61.43 35.115C61.43 36.8327 61.0429 38.6652 60.24 40.6201L62.09 41.3799C62.9738 39.2282 63.43 37.1373 63.43 35.115H61.43ZM60.2424 40.6142C59.4445 42.5222 58.4207 44.0262 57.1884 45.1587L58.5416 46.6313C60.0226 45.2704 61.1988 43.5112 62.0876 41.3858L60.2424 40.6142ZM57.1767 45.1695C55.7783 46.4962 54.468 47.5561 53.2458 48.3593L54.3442 50.0307C55.6887 49.1472 57.0917 48.0071 58.5533 46.6205L57.1767 45.1695ZM53.2347 48.3667C52.1181 49.1221 50.5338 49.7819 48.4336 50.3158L48.9264 52.2542C51.1529 51.6881 52.9786 50.9546 54.3553 50.0233L53.2347 48.3667ZM48.4454 50.3129C46.4238 50.8009 43.7966 51.055 40.54 51.055V53.055C43.8834 53.055 46.6829 52.7958 48.9146 52.2571L48.4454 50.3129ZM40.54 51.055C38.119 51.055 35.9544 50.7879 34.0381 50.2652L33.5119 52.1948C35.6289 52.7721 37.9743 53.055 40.54 53.055V51.055ZM34.0543 50.2698C33.1301 50.0009 32.5438 49.6723 32.2001 49.3412C31.8845 49.037 31.75 48.712 31.75 48.315H29.75C29.75 49.2746 30.1197 50.1138 30.8124 50.7813C31.4771 51.4219 32.4032 51.8724 33.4957 52.1902L34.0543 50.2698ZM31.75 48.315C31.75 48.1197 31.8018 48.0169 31.9891 47.9017L30.9409 46.1983C30.1749 46.6698 29.75 47.4103 29.75 48.315H31.75ZM32.0058 47.8912C32.3646 47.6605 32.728 47.555 33.115 47.555V45.555C32.3286 45.555 31.592 45.7795 30.9242 46.2088L32.0058 47.8912ZM33.115 47.555C33.2644 47.555 33.372 47.5593 33.4445 47.5653C33.4802 47.5683 33.5001 47.5711 33.5075 47.5723C33.5177 47.574 33.4972 47.5715 33.4588 47.5587L34.0912 45.6613C33.8036 45.5654 33.4225 45.555 33.115 45.555V47.555ZM34.7694 46.7155C35.0302 44.2567 35.16 41.6546 35.16 38.91H33.16C33.16 41.592 33.0331 44.1233 32.7806 46.5045L34.7694 46.7155ZM35.16 38.91C35.16 35.8535 35.0864 33.315 34.9373 31.3011L32.9427 31.4489C33.0869 33.395 33.16 35.8798 33.16 38.91H35.16ZM34.9374 31.3025C34.7894 29.2673 34.5858 27.2503 34.3267 25.2514L32.3433 25.5086C32.5975 27.4697 32.7973 29.4494 32.9426 31.4475L34.9374 31.3025ZM34.3249 25.2386C34.2898 24.9927 34.1994 24.2883 34.0523 23.111L32.0677 23.359C32.2139 24.5284 32.3068 25.2539 32.3451 25.5214L34.3249 25.2386ZM34.0556 23.1417C33.9486 22.0002 33.895 20.8397 33.895 19.66H31.895C31.895 20.9003 31.9514 22.1232 32.0644 23.3283L34.0556 23.1417ZM33.895 19.66C33.895 19.2951 34.0484 18.9379 34.6047 18.567L33.4953 16.9029C32.5116 17.5588 31.895 18.4849 31.895 19.66H33.895ZM34.6312 18.5487C35.2619 18.0983 35.8511 17.91 36.415 17.91V15.91C35.3656 15.91 34.3781 16.2717 33.4688 16.9213L34.6312 18.5487ZM36.415 17.91C36.8478 17.91 37.4553 17.9437 38.2495 18.0159L38.4305 16.0241C37.6114 15.9496 36.9355 15.91 36.415 15.91V17.91ZM38.2296 18.0139C38.8974 18.0881 39.4374 18.13 39.825 18.13V16.13C39.5526 16.13 39.1026 16.0986 38.4504 16.0261L38.2296 18.0139ZM38.9456 47.8714C39.9023 48.0308 41.1185 48.105 42.575 48.105V46.105C41.1715 46.105 40.0777 46.0325 39.2744 45.8986L38.9456 47.8714ZM42.575 48.105C45.1361 48.105 47.5699 47.5801 49.8661 46.5293L49.0339 44.7107C47.0034 45.6399 44.8539 46.105 42.575 46.105V48.105ZM49.8787 46.5234C52.1802 45.4312 54.0557 43.9169 55.4809 41.9771L53.8691 40.7929C52.6543 42.4464 51.0464 43.7555 49.0213 44.7166L49.8787 46.5234ZM55.4865 41.9693C56.936 39.9561 57.655 37.6408 57.655 35.06H55.655C55.655 37.2459 55.054 39.1472 53.8635 40.8007L55.4865 41.9693ZM57.655 35.06C57.655 32.4518 57.1949 30.1637 56.2294 28.2328L54.4406 29.1272C55.2351 30.7163 55.655 32.6816 55.655 35.06H57.655ZM56.2294 28.2328C55.2587 26.2914 53.767 24.7097 51.7919 23.4851L50.7381 25.1849C52.4296 26.2337 53.6513 27.5486 54.4406 29.1272L56.2294 28.2328ZM51.7929 23.4857C50.3067 22.5619 48.514 21.9204 46.4421 21.5367L46.0779 23.5033C47.966 23.8529 49.5099 24.4215 50.7371 25.1843L51.7929 23.4857ZM46.4596 21.5401C44.3945 21.1195 41.9405 20.915 39.11 20.915V22.915C41.8529 22.915 44.1655 23.1139 46.0604 23.4999L46.4596 21.5401ZM38.11 21.915C38.11 22.8328 38.1672 23.9627 38.2785 25.298L40.2715 25.132C40.1628 23.8273 40.11 22.7572 40.11 21.915H38.11ZM38.275 25.215C38.275 25.6922 38.3139 26.4925 38.3872 27.5915L40.3828 27.4585C40.3094 26.3575 40.275 25.6178 40.275 25.215H38.275ZM38.3863 27.5767C38.6059 31.8221 38.715 35.2312 38.715 37.81H40.715C40.715 35.1821 40.6041 31.7346 40.3837 27.4733L38.3863 27.5767ZM38.715 37.81C38.715 41.5599 38.5141 44.5192 38.1254 46.7103L40.0946 47.0597C40.5126 44.7041 40.715 41.6134 40.715 37.81H38.715ZM92.466 45.345L91.6085 45.8595L91.6291 45.8937L91.6523 45.9262L92.466 45.345ZM92.631 48.7L91.8417 48.0861L91.8363 48.093L91.831 48.1L92.631 48.7ZM91.311 49.635L91.741 50.5379L91.7496 50.5337L91.7582 50.5294L91.311 49.635ZM85.591 51.395L85.781 52.3768L85.591 51.395ZM71.071 50.405L70.4805 51.2121L70.4898 51.2187L71.071 50.405ZM68.266 46.445L67.2872 46.6499L67.29 46.6633L67.2932 46.6766L68.266 46.445ZM68.101 32.31L69.0975 32.3942L69.0976 32.393L68.101 32.31ZM69.256 22.245L68.2664 22.1007L68.265 22.1111L69.256 22.245ZM71.346 18.45L71.9069 19.2779L71.9159 19.2718L71.9248 19.2655L71.346 18.45ZM80.641 17.13L80.6295 16.1301L80.621 16.1302L80.6125 16.1304L80.641 17.13ZM85.426 17.075V16.0749L85.4145 16.0751L85.426 17.075ZM89.716 17.24L89.9121 16.2594L89.8763 16.2523L89.8401 16.2477L89.716 17.24ZM92.136 18.01L91.6399 18.8782L91.6757 18.8987L91.7131 18.9162L92.136 18.01ZM92.191 21.53L91.386 20.9368L91.3756 20.9509L91.3657 20.9653L92.191 21.53ZM77.616 22.3L77.6873 23.2975L77.7137 23.2956L77.7401 23.2923L77.616 22.3ZM75.416 22.685L75.0314 21.7619H75.0314L75.416 22.685ZM74.646 23.62L73.6596 23.4556L73.6572 23.4704L73.6551 23.4853L74.646 23.62ZM73.876 31.98H72.876V32.858L73.7467 32.9716L73.876 31.98ZM81.906 31.76L81.8121 30.7644L81.8038 30.7652L81.7956 30.7661L81.906 31.76ZM88.726 31.925L88.1378 32.7337L88.1543 32.7457L88.1713 32.757L88.726 31.925ZM88.726 35.005L88.0189 34.2979L88.0035 34.3133L87.9889 34.3293L88.726 35.005ZM86.526 35.995L86.7221 36.9756L86.7286 36.9743L86.526 35.995ZM81.741 36.6L81.6643 35.6029L81.6628 35.6031L81.741 36.6ZM73.656 36.71L73.7225 35.7122L72.7072 35.6445L72.6572 36.6609L73.656 36.71ZM83.226 46.445L83.0185 45.4668L83.226 46.445ZM87.406 45.345L87.6954 46.3022L87.7266 46.2928L87.7571 46.2813L87.406 45.345ZM90.926 45.52C91.308 45.52 91.4773 45.6408 91.6085 45.8595L93.3235 44.8305C92.7947 43.9492 91.9374 43.52 90.926 43.52V45.52ZM91.6523 45.9262C91.8994 46.2722 92.016 46.6378 92.016 47.05H94.016C94.016 46.2156 93.766 45.4445 93.2798 44.7638L91.6523 45.9262ZM92.016 47.05C92.016 47.7612 91.8872 48.0275 91.8417 48.0861L93.4204 49.3139C93.8881 48.7125 94.016 47.8788 94.016 47.05H92.016ZM91.831 48.1C91.7583 48.197 91.4981 48.4234 90.8638 48.7406L91.7582 50.5294C92.4439 50.1866 93.0638 49.7897 93.431 49.3L91.831 48.1ZM90.8811 48.7321C89.439 49.4188 87.6187 49.984 85.401 50.4132L85.781 52.3768C88.11 51.926 90.103 51.3178 91.741 50.5379L90.8811 48.7321ZM85.401 50.4132C83.1974 50.8397 80.8233 51.055 78.276 51.055V53.055C80.9354 53.055 83.4379 52.8303 85.781 52.3768L85.401 50.4132ZM78.276 51.055C75.0865 51.055 72.9388 50.5102 71.6523 49.5913L70.4898 51.2187C72.2833 52.4998 74.9389 53.055 78.276 53.055V51.055ZM71.6615 49.598C70.3143 48.6122 69.541 47.4826 69.2388 46.2134L67.2932 46.6766C67.7243 48.4874 68.8211 49.9978 70.4805 51.212L71.6615 49.598ZM69.2448 46.2401C68.9345 44.7576 68.771 42.7804 68.771 40.285H66.771C66.771 42.8496 66.9375 44.979 67.2872 46.6499L69.2448 46.2401ZM68.771 40.285C68.771 37.5987 68.8799 34.9685 69.0975 32.3942L67.1046 32.2258C66.8821 34.8582 66.771 37.5446 66.771 40.285H68.771ZM69.0976 32.393C69.3156 29.7766 69.6982 26.4401 70.247 22.3789L68.265 22.1111C67.7138 26.1899 67.3264 29.5634 67.1045 32.227L69.0976 32.393ZM70.2455 22.3893C70.4744 20.8203 71.0667 19.847 71.9069 19.2779L70.7852 17.6221C69.352 18.593 68.551 20.1497 68.2665 22.1007L70.2455 22.3893ZM71.9248 19.2655C72.8973 18.5753 73.9427 18.24 75.086 18.24V16.24C73.516 16.24 72.0681 16.7113 70.7673 17.6345L71.9248 19.2655ZM75.086 18.24C76.2381 18.24 78.1022 18.2029 80.6696 18.1296L80.6125 16.1304C78.0465 16.2037 76.2072 16.24 75.086 16.24V18.24ZM80.6525 18.1299L85.4375 18.0749L85.4145 16.0751L80.6295 16.1301L80.6525 18.1299ZM85.426 18.075C87.4023 18.075 88.7786 18.1306 89.592 18.2323L89.8401 16.2477C88.8934 16.1294 87.4097 16.075 85.426 16.075V18.075ZM89.5199 18.2206C90.5913 18.4349 91.2696 18.6667 91.6399 18.8782L92.6322 17.1418C91.9757 16.7667 91.0407 16.4851 89.9121 16.2594L89.5199 18.2206ZM91.7131 18.9162C91.8328 18.972 91.8758 19.025 91.8973 19.0607C91.9219 19.1018 91.961 19.1939 91.961 19.385H93.961C93.961 18.9161 93.8626 18.449 93.6123 18.0318C93.3587 17.6091 92.9893 17.3047 92.5589 17.1038L91.7131 18.9162ZM91.961 19.385C91.961 19.8684 91.7962 20.3801 91.386 20.9368L92.9961 22.1232C93.6125 21.2866 93.961 20.3683 93.961 19.385H91.961ZM91.3657 20.9653C91.1097 21.3395 90.7166 21.575 89.991 21.575V23.575C91.2454 23.575 92.319 23.1138 93.0163 22.0947L91.3657 20.9653ZM89.991 21.575C88.8892 21.575 87.2847 21.5036 85.1648 21.3574L85.0272 23.3526C87.1607 23.4998 88.8195 23.575 89.991 23.575V21.575ZM85.1648 21.3574C83.0331 21.2104 81.4101 21.135 80.311 21.135V23.135C81.3386 23.135 82.9056 23.2063 85.0272 23.3526L85.1648 21.3574ZM80.311 21.135C79.3543 21.135 78.4145 21.1924 77.492 21.3077L77.7401 23.2923C78.5776 23.1876 79.4344 23.135 80.311 23.135V21.135ZM77.5448 21.3025C76.5056 21.3768 75.632 21.5117 75.0314 21.7619L75.8006 23.6081C76.08 23.4917 76.6731 23.3699 77.6873 23.2975L77.5448 21.3025ZM75.0314 21.7619C74.2998 22.0668 73.7941 22.6489 73.6596 23.4556L75.6324 23.7844C75.6433 23.719 75.6602 23.6984 75.6654 23.692C75.6728 23.683 75.7041 23.6483 75.8006 23.6081L75.0314 21.7619ZM73.6551 23.4853C73.1409 27.2687 72.876 30.1116 72.876 31.98H74.876C74.876 30.255 75.1245 27.5247 75.6369 23.7547L73.6551 23.4853ZM73.7467 32.9716C74.6306 33.0869 75.4988 33.145 76.351 33.145V31.145C75.5899 31.145 74.8081 31.0931 74.0054 30.9884L73.7467 32.9716ZM76.351 33.145C77.413 33.145 78.5444 33.0881 79.7444 32.9756L79.5577 30.9844C78.4109 31.0919 77.3424 31.145 76.351 31.145V33.145ZM79.7444 32.9756C80.9152 32.8659 81.6762 32.7917 82.0164 32.7539L81.7956 30.7661C81.4759 30.8016 80.7335 30.8741 79.5577 30.9844L79.7444 32.9756ZM81.9999 32.7556C83.9234 32.5741 85.5587 32.485 86.911 32.485V30.485C85.4767 30.485 83.7753 30.5792 81.8121 30.7644L81.9999 32.7556ZM86.911 32.485C87.6262 32.485 87.9819 32.6204 88.1378 32.7337L89.3142 31.1163C88.6634 30.643 87.8092 30.485 86.911 30.485V32.485ZM88.1713 32.757C88.3432 32.8716 88.386 32.968 88.386 33.135H90.386C90.386 32.2754 89.9888 31.565 89.2807 31.0929L88.1713 32.757ZM88.386 33.135C88.386 33.7585 88.2204 34.0964 88.0189 34.2979L89.4331 35.7121C90.1116 35.0336 90.386 34.1249 90.386 33.135H88.386ZM87.9889 34.3293C87.8031 34.532 87.3279 34.8079 86.3234 35.0157L86.7286 36.9743C87.8508 36.7421 88.8423 36.358 89.4632 35.6807L87.9889 34.3293ZM86.3299 35.0144C85.0994 35.2605 83.5474 35.4581 81.6643 35.6029L81.8177 37.5971C83.748 37.4486 85.3859 37.2428 86.7221 36.9756L86.3299 35.0144ZM81.6628 35.6031C79.8177 35.7478 78.0105 35.82 76.241 35.82V37.82C78.0649 37.82 79.9243 37.7456 81.8192 37.5969L81.6628 35.6031ZM76.241 35.82C75.6505 35.82 74.8144 35.785 73.7225 35.7122L73.5895 37.7078C74.6976 37.7817 75.5849 37.82 76.241 37.82V35.82ZM72.6572 36.6609C72.5466 38.9112 72.491 40.9994 72.491 42.925H74.491C74.491 41.0372 74.5455 38.9822 74.6548 36.7591L72.6572 36.6609ZM72.491 42.925C72.491 44.468 73.0164 45.7722 74.1808 46.6517C75.2923 47.4912 76.8404 47.83 78.661 47.83V45.83C77.035 45.83 75.9981 45.5179 75.3862 45.0558C74.8273 44.6336 74.491 43.9853 74.491 42.925H72.491ZM78.661 47.83C80.5341 47.83 82.1312 47.6995 83.4335 47.4232L83.0185 45.4668C81.9009 45.7038 80.4546 45.83 78.661 45.83V47.83ZM83.4335 47.4232C84.6784 47.1592 86.1 46.7845 87.6954 46.3022L87.1166 44.3878C85.5587 44.8588 84.1936 45.2175 83.0185 45.4668L83.4335 47.4232ZM87.7571 46.2813C89.185 45.7459 90.2251 45.52 90.926 45.52V43.52C89.8669 43.52 88.5603 43.8441 87.0549 44.4087L87.7571 46.2813ZM101.803 18.725L102.751 18.4062L102.747 18.3947L102.742 18.3833L101.803 18.725ZM106.423 32.035L105.481 32.3704L105.481 32.3727L106.423 32.035ZM111.153 44.52L110.226 44.8964L111.277 47.4819L112.107 44.8177L111.153 44.52ZM115.553 32.255L116.484 32.6202L116.485 32.6178L115.553 32.255ZM120.778 19.275L119.855 18.8883L119.855 18.8885L120.778 19.275ZM125.618 18.23L124.993 19.0109L125.009 19.024L125.026 19.0364L125.618 18.23ZM126.278 21.42L125.341 21.0689L125.341 21.0689L126.278 21.42ZM125.783 22.575L126.674 23.028L126.683 23.0112L126.691 22.9941L125.783 22.575ZM122.373 30.33L123.304 30.6953L123.305 30.6913L122.373 30.33ZM118.193 41.385L117.254 41.0389L119.121 41.7564L118.193 41.385ZM116.653 45.51L117.586 45.8683L117.589 45.8611L116.653 45.51ZM114.838 50.24L113.904 49.8817L113.901 49.8889L114.838 50.24ZM113.738 51.615L114.262 52.4667L114.27 52.4615L114.278 52.4562L113.738 51.615ZM109.998 51.615L109.587 52.5269L109.614 52.539L109.642 52.5495L109.998 51.615ZM108.403 50.625L107.517 51.0885L107.587 51.224L107.696 51.3321L108.403 50.625ZM103.618 40.285L102.697 40.6744L102.699 40.6807L103.618 40.285ZM98.6677 27.8L99.607 27.4568L99.6068 27.4564L98.6677 27.8ZM97.8427 25.545L96.9009 25.8813L96.9036 25.8886L97.8427 25.545ZM96.6327 22.025L95.6759 22.3162L95.6798 22.3282L96.6327 22.025ZM97.4577 18.23L96.9951 17.3434L96.9869 17.3477L96.9788 17.3521L97.4577 18.23ZM101.033 17.845L101.48 16.9506L101.033 17.845ZM100.855 19.0438C102.214 23.0837 103.756 27.526 105.481 32.3704L107.365 31.6996C105.643 26.864 104.105 22.433 102.751 18.4062L100.855 19.0438ZM105.481 32.3727C107.208 37.1849 108.79 41.3601 110.226 44.8964L112.079 44.1436C110.656 40.6399 109.084 36.4917 107.364 31.6973L105.481 32.3727ZM112.107 44.8177C113.161 41.4379 114.619 37.3733 116.484 32.6202L114.622 31.8898C112.746 36.67 111.271 40.7821 110.198 44.2223L112.107 44.8177ZM116.485 32.6178C118.352 27.8206 120.091 23.5021 121.7 19.6615L119.855 18.8885C118.238 22.7479 116.493 27.0827 114.621 31.8922L116.485 32.6178ZM121.7 19.6617C121.884 19.2237 122.101 18.9657 122.316 18.8137C122.526 18.6657 122.803 18.57 123.198 18.57V16.57C122.456 16.57 121.761 16.7584 121.164 17.1788C120.573 17.5952 120.148 18.1897 119.855 18.8883L121.7 19.6617ZM123.198 18.57C124.145 18.57 124.691 18.7691 124.993 19.0109L126.242 17.4491C125.445 16.8109 124.378 16.57 123.198 16.57V18.57ZM125.026 19.0364C125.209 19.1705 125.443 19.4996 125.443 20.375H127.443C127.443 19.1971 127.126 18.0961 126.209 17.4236L125.026 19.0364ZM125.443 20.375C125.443 20.6912 125.399 20.9149 125.341 21.0689L127.214 21.7711C127.376 21.3384 127.443 20.8654 127.443 20.375H125.443ZM125.341 21.0689C125.244 21.3291 125.09 21.6889 124.875 22.1559L126.691 22.9941C126.915 22.5078 127.092 22.0976 127.214 21.7711L125.341 21.0689ZM124.891 22.1219C123.736 24.3948 122.586 27.0115 121.44 29.9687L123.305 30.6913C124.433 27.7818 125.556 25.2285 126.674 23.028L124.891 22.1219ZM121.442 29.9647C120.302 32.8702 118.906 36.5622 117.254 41.0389L119.131 41.7311C120.78 37.2612 122.17 33.5832 123.304 30.6953L121.442 29.9647ZM119.121 41.7564C119.123 41.7518 119.121 41.7564 119.118 41.7648C119.118 41.7648 119.109 41.7855 119.096 41.8112C119.092 41.8189 119.085 41.8329 119.076 41.8501C119.07 41.8616 119.048 41.9012 119.014 41.9484C118.995 41.9747 118.94 42.041 118.903 42.0796C118.829 42.1461 118.559 42.3019 118.354 42.3568C117.981 42.3447 117.428 42.005 117.28 41.7613C117.236 41.6349 117.202 41.4365 117.2 41.3689C117.2 41.2675 117.216 41.1886 117.218 41.1787C117.223 41.1522 117.228 41.1315 117.231 41.1214C117.236 41.1005 117.241 41.0845 117.243 41.079C117.247 41.0661 117.25 41.0566 117.25 41.0553C117.252 41.0507 117.252 41.0493 117.25 41.0543C117.244 41.0735 117.227 41.118 117.2 41.1933C117.145 41.3404 117.054 41.5853 116.926 41.929C116.669 42.6158 116.266 43.6923 115.716 45.1589L117.589 45.8611C118.139 44.3944 118.543 43.3167 118.8 42.6285C118.928 42.2847 119.02 42.0369 119.076 41.8861C119.103 41.8124 119.123 41.7567 119.135 41.7243C119.138 41.7164 119.142 41.7052 119.146 41.6937C119.147 41.689 119.151 41.6769 119.156 41.6621C119.158 41.6557 119.163 41.6389 119.168 41.6174C119.171 41.6071 119.176 41.5862 119.181 41.5595C119.183 41.5494 119.2 41.4704 119.2 41.3689C119.197 41.3012 119.164 41.1027 119.119 40.9764C118.971 40.7327 118.418 40.3929 118.045 40.3808C117.84 40.4357 117.57 40.5916 117.496 40.6581C117.459 40.6967 117.404 40.763 117.385 40.7894C117.351 40.8367 117.329 40.8765 117.323 40.8882C117.313 40.9055 117.306 40.9198 117.302 40.9278C117.289 40.9547 117.279 40.9772 117.278 40.9799C117.272 40.9937 117.267 41.0068 117.264 41.0136L119.121 41.7564ZM115.719 45.1517L113.904 49.8817L115.771 50.5983L117.586 45.8683L115.719 45.1517ZM113.901 49.8889C113.755 50.2796 113.524 50.5636 113.197 50.7738L114.278 52.4562C114.978 52.0064 115.481 51.3737 115.774 50.5911L113.901 49.8889ZM113.214 50.7633C112.912 50.9489 112.548 51.055 112.088 51.055V53.055C112.874 53.055 113.61 52.8677 114.262 52.4667L113.214 50.7633ZM112.088 51.055C111.618 51.055 111.045 50.9437 110.354 50.6805L109.642 52.5495C110.491 52.873 111.311 53.055 112.088 53.055V51.055ZM110.408 50.7031C109.717 50.3922 109.314 50.1218 109.11 49.9179L107.696 51.3321C108.152 51.7882 108.812 52.1778 109.587 52.5269L110.408 50.7031ZM109.289 50.1615C108.06 47.8114 106.476 44.3917 104.536 39.8893L102.699 40.6807C104.646 45.1983 106.253 48.6719 107.517 51.0885L109.289 50.1615ZM104.539 39.8956C102.637 35.3979 100.994 31.2518 99.607 27.4568L97.7284 28.1432C99.1285 31.9748 100.785 36.1521 102.697 40.6744L104.539 39.8956ZM99.6068 27.4564L98.7818 25.2014L96.9036 25.8886L97.7286 28.1436L99.6068 27.4564ZM98.7844 25.2087C98.2355 23.6716 97.8369 22.5114 97.5856 21.7218L95.6798 22.3282C95.9419 23.1519 96.3499 24.3384 96.901 25.8813L98.7844 25.2087ZM97.5894 21.7338C97.344 20.9276 97.2477 20.3587 97.2477 19.99H95.2477C95.2477 20.6479 95.4081 21.4357 95.676 22.3162L97.5894 21.7338ZM97.2477 19.99C97.2477 19.72 97.3555 19.4248 97.9365 19.1079L96.9788 17.3521C95.9465 17.9152 95.2477 18.7934 95.2477 19.99H97.2477ZM97.9203 19.1166C98.6539 18.7338 99.3023 18.57 99.8777 18.57V16.57C98.9131 16.57 97.9482 16.8462 96.9951 17.3434L97.9203 19.1166ZM99.8777 18.57C100.123 18.57 100.355 18.6243 100.585 18.7394L101.48 16.9506C100.977 16.699 100.439 16.57 99.8777 16.57V18.57ZM100.585 18.7394C100.712 18.8025 100.799 18.8914 100.863 19.0667L102.742 18.3833C102.513 17.7519 102.087 17.2541 101.48 16.9506L100.585 18.7394Z" fill="black"/>
<defs>
<filter id="filter0_i_2_40" x="30.75" y="16.91" width="95.6927" height="39.145" filterUnits="userSpaceOnUse" color-interpolation-filters="sRGB">
<feFlood flood-opacity="0" result="BackgroundImageFix"/>
<feBlend mode="normal" in="SourceGraphic" in2="BackgroundImageFix" result="shape"/>
<feColorMatrix in="SourceAlpha" type="matrix" values="0 0 0 0 0 0 0 0 0 0 0 0 0 0 0 0 0 0 127 0" result="hardAlpha"/>
<feOffset dy="4"/>
<feGaussianBlur stdDeviation="2"/>
<feComposite in2="hardAlpha" operator="arithmetic" k2="-1" k3="1"/>
<feColorMatrix type="matrix" values="0 0 0 0 0 0 0 0 0 0 0 0 0 0 0 0 0 0 0.25 0"/>
<feBlend mode="normal" in2="shape" result="effect1_innerShadow_2_40"/>
</filter>
</defs>
</svg>
