<svg width="285" height="201" viewBox="0 0 285 201" fill="none" xmlns="http://www.w3.org/2000/svg">
<g clip-path="url(#clip0)">
<path d="M220.322 80.7079L218.131 74.877C216.172 75.6085 214.184 76.2779 212.222 76.8694L214.028 82.8279C216.119 82.1991 218.237 81.4861 220.322 80.7079Z" fill="#47A06C"/>
<path d="M200.625 94.2657V85.8975C202.944 85.5271 205.272 85.0726 207.581 84.5433L206.172 78.4758C203.159 79.1732 200.106 79.7211 197.097 80.1165L194.375 80.4745V94.2688C194.375 95.1031 194.394 95.9343 194.438 96.7624L200.681 96.4449C200.644 95.7195 200.625 94.9973 200.625 94.2657Z" fill="#47A06C"/>
<path d="M144.375 40.4707C134.034 40.4707 125.625 48.8482 125.625 59.1495C125.625 69.4509 134.034 77.8284 144.375 77.8284C154.716 77.8284 163.125 69.4509 163.125 59.1495C163.125 48.8482 154.716 40.4707 144.375 40.4707ZM144.375 71.6021C137.481 71.6021 131.875 66.0171 131.875 59.1495C131.875 52.2819 137.481 46.697 144.375 46.697C151.269 46.697 156.875 52.2819 156.875 59.1495C156.875 66.0171 151.269 71.6021 144.375 71.6021Z" fill="#47A06C"/>
<path d="M227.119 58.4894L225.628 57.6831L224.137 58.4894C212.175 64.9461 198.634 68.4048 184.981 68.4857L181.875 68.5044V94.2656C181.875 121.278 199.028 145.617 224.559 154.825L225.625 155.208L226.691 154.825C252.222 145.617 269.375 121.278 269.375 94.2656V68.5044L266.269 68.4857C252.625 68.4048 239.088 64.9461 227.119 58.4894ZM263.125 94.2656C263.125 118.29 248.103 139.973 225.625 148.574C203.147 139.97 188.125 118.287 188.125 94.2656V74.6373C201.181 74.1049 214.053 70.7116 225.628 64.7468C237.206 70.7116 250.075 74.1049 263.125 74.6373V94.2656Z" fill="#47A06C"/>
<path d="M213.125 98.3314L199.331 112.073L219.375 132.04L258.169 93.394L244.375 79.6526L219.375 104.558L213.125 98.3314ZM249.331 93.394L219.375 123.237L208.169 112.073L213.125 107.135L219.375 113.362L244.375 88.4565L249.331 93.394Z" fill="#47A06C"/>
<path d="M281.875 56.0364H266.784C252.741 56.0364 239.144 51.9364 227.341 44.0944L225.506 43.0328L223.784 44.1753C216.669 48.9042 208.834 52.2539 200.625 54.1654V47.3445L192.391 45.4143C191.353 41.8062 189.906 38.332 188.075 35.0414L192.531 27.8718L175.772 11.1761L168.575 15.6154C165.272 13.7911 161.784 12.3497 158.162 11.3162L156.225 3.11304H132.525L130.588 11.3162C126.966 12.3497 123.478 13.7911 120.175 15.6154L112.978 11.1761L96.2188 27.8718L100.675 35.0414C98.8437 38.332 97.3969 41.8062 96.3594 45.4143L88.125 47.3445V70.9545L96.3594 72.8847C97.3969 76.4928 98.8437 79.967 100.675 83.2576L98.5 85.6734L116.5 103.571L120.175 102.684C123.478 104.508 126.966 105.949 130.588 106.983L132.525 115.186H156.225L158.162 106.983C161.784 105.949 165.272 104.508 168.575 102.684L170.016 103.571C171.691 117.029 176.884 129.653 184.844 140.244L174.331 178.644L189.762 174.799L201.441 194.191L211.919 162.876C215.994 164.928 220.266 166.665 224.744 167.979L225.625 168.24L226.506 167.982C230.984 166.668 235.256 164.931 239.331 162.879L249.809 194.194L261.488 174.803L276.919 178.647L266.406 140.247C276.178 127.24 281.875 111.195 281.875 94.2657V56.0364ZM168.644 95.4051L167.009 96.3951C163.213 98.6863 159.113 100.383 154.812 101.429L152.95 101.884L151.275 108.96H137.475L135.803 101.884L133.941 101.429C129.641 100.383 125.541 98.6863 121.744 96.3951L120.109 95.4051L113.903 99.2311L104.144 89.5088L107.984 83.3261L106.991 81.698C104.691 77.9155 102.988 73.8311 101.938 69.5474L101.481 67.692L94.375 66.0233V52.2757L101.478 50.6102L101.934 48.7547C102.984 44.4711 104.688 40.3866 106.987 36.6042L107.981 34.976L104.141 28.7902L113.9 19.0679L120.106 22.8939L121.741 21.9039C125.537 19.6127 129.638 17.916 133.938 16.87L135.8 16.4155L137.475 9.33931H151.275L152.947 16.4155L154.809 16.87C159.109 17.916 163.209 19.6127 167.006 21.9039L168.641 22.8939L174.847 19.0679L184.606 28.7902L180.766 34.9729L181.759 36.6011C184.059 40.3835 185.763 44.4679 186.813 48.7516L187.269 50.6071L194.375 52.2757V55.3328C191.109 55.7873 187.803 56.0364 184.466 56.0364H181.716C180.119 36.8906 164 21.7919 144.375 21.7919C123.697 21.7919 106.875 38.5499 106.875 59.1495C106.875 79.7491 123.697 96.5071 144.375 96.5071C153.688 96.5071 162.562 93.0235 169.375 86.956V94.2688C169.375 94.8167 169.431 95.3553 169.444 95.9001L168.644 95.4051ZM169.375 56.0364V77.763C163.478 85.6018 154.222 90.2809 144.375 90.2809C127.144 90.2809 113.125 76.3153 113.125 59.1495C113.125 41.9837 127.144 28.0181 144.375 28.0181C160.55 28.0181 173.894 40.3275 175.466 56.0364H169.375ZM199.809 179.382L192.738 167.642L183.169 170.024L189.728 146.059C194.578 151.354 200.166 155.987 206.366 159.785L199.809 179.382ZM268.081 170.024L258.512 167.642L251.441 179.382L244.884 159.785C251.084 155.987 256.672 151.354 261.522 146.059L268.081 170.024ZM275.625 94.2657C275.625 125.067 255.113 152.684 225.625 161.746C196.137 152.684 175.625 125.067 175.625 94.2657V62.2626H184.466C199.069 62.2626 213.225 58.1875 225.622 50.4078C237.959 58.172 252.15 62.2626 266.784 62.2626H275.625V94.2657Z" fill="#47A06C"/>
<g clip-path="url(#clip1)">
<path d="M81.5069 63.1742C79.5709 61.2456 76.6334 60.9169 74.3794 62.1935C74.089 61.5268 73.6716 60.9017 73.1244 60.3565C71.1884 58.4279 68.2509 58.0992 65.9969 59.3758C65.7065 58.7091 65.2891 58.0839 64.7419 57.5388C62.4238 55.2294 58.6691 55.2122 56.3723 57.5004L41.4041 72.4117C38.2945 75.5095 35.9009 79.3844 34.479 83.6259L33.8539 85.5174L18.6304 100.683C18.0884 101.223 17.6768 101.845 17.3924 102.509C15.1265 101.211 12.1919 101.513 10.2736 103.424C8.35541 105.335 8.05257 108.258 9.35484 110.516C8.6884 110.799 8.0644 111.209 7.52233 111.749C5.6041 113.66 5.30126 116.583 6.60352 118.841C5.93709 119.124 5.31309 119.534 4.77102 120.074C2.47414 122.362 2.49144 126.103 4.80959 128.412L19.9163 143.461C25.8233 149.346 32.2018 150.683 33.1421 151.104L48.5066 166.41C49.0537 166.955 49.6815 167.371 50.3506 167.66C49.0692 169.906 49.3991 172.832 51.335 174.761C53.271 176.689 56.2086 177.018 58.4626 175.742C58.7531 176.408 59.1705 177.034 59.7176 177.579C61.6535 179.507 64.5911 179.836 66.8451 178.559C67.1356 179.226 67.553 179.851 68.1001 180.396C70.4182 182.706 74.1728 182.723 76.4697 180.435L79.8159 177.101C80.5828 176.337 80.577 175.093 79.803 174.322C79.029 173.551 77.78 173.545 77.0131 174.309L73.667 177.643C72.9013 178.405 71.6498 178.4 70.8771 177.63C70.1044 176.86 70.0986 175.613 70.8642 174.85L73.6413 172.084C74.4081 171.32 74.4024 170.076 73.6284 169.305C72.8544 168.534 71.6054 168.528 70.8385 169.292C68.896 171.227 67.227 172.89 65.2845 174.825C64.5188 175.588 63.2673 175.582 62.4946 174.812C61.7219 174.042 61.7161 172.795 62.4817 172.033L68.0358 166.5C68.8026 165.736 68.7969 164.492 68.0229 163.721C67.2489 162.949 65.9999 162.944 65.233 163.708C63.9695 164.966 59.0919 169.826 56.902 172.007C56.1363 172.77 54.8848 172.764 54.1121 171.994C53.3394 171.225 53.3336 169.978 54.0992 169.215L62.4303 160.916C63.1972 160.152 63.1914 158.907 62.4174 158.136C61.6435 157.365 60.3944 157.36 59.6276 158.124L54.0735 163.656C53.3079 164.419 52.0563 164.413 51.2836 163.644C50.5109 162.874 50.5051 161.627 51.2708 160.864L65.1559 147.032C65.9228 146.268 65.917 145.024 65.143 144.253L63.7417 142.857L67.2407 139.371C70.5604 136.064 75.3809 134.947 79.821 136.455C80.5326 136.697 81.3163 136.517 81.8438 135.992L93.2296 124.649L105.842 137.214C106.333 137.703 106.889 138.088 107.482 138.372L98.6345 147.186C98.4188 147.4 98.2568 147.663 98.1615 147.952L97.3936 150.275C96.1652 153.94 94.0968 157.29 91.4122 159.965L89.4824 161.887C88.7155 162.651 88.7213 163.895 89.4953 164.666C90.2692 165.438 91.5183 165.443 92.2851 164.679L94.2149 162.757C97.3245 159.659 99.7181 155.784 101.14 151.543L101.765 149.651L114.212 137.252C114.754 136.712 115.165 136.09 115.45 135.426C117.716 136.724 120.65 136.422 122.568 134.511C124.487 132.6 124.789 129.677 123.487 127.419C124.154 127.136 124.778 126.726 125.32 126.186C127.238 124.275 127.541 121.352 126.238 119.094C126.905 118.811 127.529 118.401 128.071 117.861C130.368 115.573 130.351 111.832 128.032 109.523L111.216 92.7705C111.003 92.5583 110.754 92.4063 110.489 92.3101C107.851 90.2213 104.83 88.5706 101.604 87.4714L99.7 86.8312L84.3354 71.5249C83.7883 70.9799 83.1605 70.5641 82.4914 70.2747C83.7729 68.0291 83.443 65.103 81.5069 63.1742ZM60.9646 145.623L48.468 158.072C47.9812 158.557 47.5996 159.108 47.3205 159.696L35.5883 148.008C35.3708 147.791 35.1061 147.627 34.815 147.53C33.6857 147.034 27.9358 145.917 22.6934 140.695L7.58661 125.646C6.8139 124.876 6.80813 123.629 7.57375 122.866C8.33938 122.104 9.59092 122.109 10.3636 122.879L13.1664 125.671C13.9404 126.442 15.1894 126.448 15.9563 125.684C16.7231 124.92 16.7174 123.676 15.9434 122.905L10.3379 117.32C9.56521 116.551 9.55944 115.304 10.3251 114.541C11.0907 113.778 12.3422 113.784 13.1149 114.554L18.7204 120.138C19.4944 120.909 20.7434 120.915 21.5103 120.151C22.2772 119.387 22.2714 118.143 21.4975 117.372C20.2222 116.101 15.2995 111.197 13.0892 108.995C12.3165 108.226 12.3108 106.979 13.0764 106.216C13.842 105.453 15.0935 105.459 15.8663 106.229L24.2745 114.605C25.0485 115.376 26.2975 115.382 27.0644 114.618C27.8312 113.854 27.8255 112.61 27.0515 111.839L21.446 106.255C20.6733 105.485 20.6675 104.238 21.4332 103.475C22.1988 102.713 23.4503 102.718 24.2231 103.488L38.2367 117.449C39.0107 118.22 40.2598 118.225 41.0266 117.461L42.4151 116.078L45.9466 119.596C49.2461 122.883 50.4405 127.813 48.9895 132.156C48.7536 132.863 48.941 133.645 49.4734 134.176L60.9646 145.623ZM64.438 136.579L60.9389 140.065L53.0823 132.238C54.4618 126.744 52.8469 120.937 48.7236 116.83L45.1922 113.312L52.9769 105.556C58.5044 106.982 64.3184 105.426 68.404 101.356L71.903 97.8705L79.7597 105.697C78.3801 111.191 79.995 116.998 84.1183 121.105L87.6498 124.623L79.8652 132.378C74.3377 130.954 68.5235 132.509 64.438 136.579ZM125.255 112.29C126.028 113.059 126.034 114.306 125.268 115.069C124.503 115.832 123.251 115.826 122.478 115.056L119.676 112.264C118.902 111.493 117.652 111.487 116.886 112.251C116.119 113.015 116.125 114.259 116.899 115.03L122.504 120.615C123.277 121.384 123.283 122.631 122.517 123.394C121.751 124.157 120.5 124.151 119.727 123.381L114.122 117.797C113.348 117.026 112.098 117.02 111.332 117.784C110.565 118.548 110.571 119.792 111.345 120.563L119.753 128.94C120.525 129.709 120.531 130.956 119.766 131.719C119 132.482 117.748 132.476 116.976 131.706L108.567 123.33C107.794 122.559 106.544 122.553 105.778 123.317C105.011 124.081 105.016 125.325 105.79 126.096L111.396 131.681C112.169 132.45 112.174 133.697 111.409 134.46C110.643 135.223 109.392 135.217 108.619 134.447L94.6052 120.487C93.8312 119.715 92.5821 119.71 91.8153 120.474L90.4268 121.857L86.8954 118.339C83.545 115.001 82.379 110.189 83.8524 105.779C84.0885 105.072 83.9011 104.29 83.3686 103.76L71.8773 92.3119L84.3739 79.8628C84.8608 79.3778 85.2424 78.8273 85.5214 78.2394L97.2537 89.9271C97.4712 90.1438 97.7358 90.3076 98.027 90.4054L100.366 91.1918C104.056 92.4494 107.439 94.5409 110.149 97.2401L125.255 112.29ZM78.7427 68.72L70.4117 77.0194C69.6449 77.7833 69.6506 79.0277 70.4245 79.7987C71.1985 80.5698 72.4477 80.5754 73.2144 79.8115L78.7685 74.2786C79.5341 73.5159 80.7856 73.5216 81.5583 74.2914C82.3311 75.0612 82.3368 76.3079 81.5712 77.0707L67.6861 90.9031C66.9193 91.6669 66.925 92.9113 67.6989 93.6824L69.1003 95.0784L65.6012 98.5642C62.3319 101.821 57.3937 102.966 53.0209 101.48C52.3096 101.238 51.5258 101.418 50.9982 101.943L39.6124 113.286L27.0001 100.722C26.5088 100.232 25.9526 99.8468 25.3599 99.5634L36.9845 87.9829C37.2001 87.7681 37.3621 87.5059 37.4576 87.2168C37.9448 86.0979 39.0124 80.3785 44.2068 75.2038L59.175 60.2925C59.9406 59.5297 61.1922 59.5355 61.9649 60.3053C62.7376 61.0751 62.7434 62.3218 61.9777 63.0846L59.2007 65.851C58.434 66.6149 58.4396 67.8593 59.2136 68.6303C59.9875 69.4014 61.2367 69.407 62.0035 68.6431L67.5575 63.1102C68.3231 62.3475 69.5747 62.3532 70.3474 63.123C71.1201 63.8928 71.1259 65.1396 70.3602 65.9023L64.8062 71.4352C64.0395 72.1991 64.0451 73.4435 64.8191 74.2145C65.593 74.9856 66.8422 74.9912 67.6089 74.2273L75.94 65.9279C76.7056 65.1652 77.9572 65.1709 78.7299 65.9407C79.5026 66.7105 79.5084 67.9573 78.7427 68.72Z" fill="#47A06C"/>
<path d="M85.7689 170.333C86.5358 169.569 86.53 168.325 85.756 167.554C84.9821 166.783 83.733 166.777 82.9661 167.541C82.1993 168.305 82.2051 169.549 82.979 170.32C83.753 171.091 85.002 171.097 85.7689 170.333Z" fill="#47A06C"/>
</g>
</g>
<defs>
<clipPath id="clip0">
<rect width="285" height="200.237" fill="white"/>
</clipPath>
<clipPath id="clip1">
<rect width="100.348" height="101.278" fill="white" transform="matrix(0.70845 -0.705761 0.70845 0.705761 -5 118.64)"/>
</clipPath>
</defs>
</svg>
